<?xml version="1.0" standalone="no"?>
<!DOCTYPE svg PUBLIC "-//W3C//DTD SVG 20010904//EN"
 "http://www.w3.org/TR/2001/REC-SVG-20010904/DTD/svg10.dtd">
<svg version="1.0" xmlns="http://www.w3.org/2000/svg"
 width="999.000000pt" height="999.000000pt" viewBox="0 0 999.000000 999.000000"
 preserveAspectRatio="xMidYMid meet">
<metadata>
Created by potrace 1.11, written by Peter Selinger 2001-2013
</metadata>
<g transform="translate(0.000000,999.000000) scale(0.100000,-0.100000)"
fill="#000000" stroke="none">
<path d="M1746 9973 c-13 -7 -28 -25 -33 -40 -11 -33 -11 -2508 0 -2539 16
-47 91 -57 128 -18 l24 26 0 1206 c0 664 3 1209 7 1212 3 3 114 5 245 5 l238
-1 0 -1134 c0 -875 3 -1140 13 -1157 6 -12 22 -25 34 -29 11 -3 379 -6 816 -6
l794 0 25 25 26 25 0 1136 c0 625 3 1137 6 1137 30 6 474 2 478 -4 2 -4 5
-546 5 -1204 0 -843 3 -1203 10 -1218 40 -74 147 -48 149 37 0 18 0 586 1
1262 0 983 -2 1233 -13 1252 -7 14 -26 28 -42 32 -15 4 -181 7 -368 7 -338 -1
-339 -1 -361 -23 l-23 -23 0 -1132 c0 -622 -3 -1137 -7 -1142 -4 -7 -241 -10
-685 -9 -373 1 -683 2 -690 3 -8 1 -11 276 -12 1099 0 603 0 1116 0 1138 -1
25 -8 51 -20 65 l-19 23 -351 1 c-263 0 -357 -3 -375 -12z"/>
<path d="M5168 9977 c-31 -11 -47 -37 -48 -76 0 -32 50 -83 763 -796 419 -419
771 -767 781 -772 12 -7 31 -7 49 -2 37 11 1540 1511 1557 1553 14 39 -14 88
-55 96 -17 3 -334 6 -706 5 -726 0 -699 2 -719 -50 -13 -33 0 -75 28 -93 24
-15 78 -17 593 -17 312 0 570 -3 573 -6 3 -3 -286 -296 -642 -652 l-647 -647
-648 648 c-356 356 -647 650 -647 652 0 3 255 5 567 4 618 -1 622 0 640 53 14
38 -6 88 -39 99 -30 10 -1372 12 -1400 1z"/>
<path d="M1730 7158 c-11 -12 -21 -27 -21 -32 -7 -60 -3 -2628 4 -2650 17 -51
39 -53 416 -52 l344 2 18 23 c11 13 19 37 20 55 0 17 0 551 1 1187 l0 1156
681 1 c375 0 689 -2 697 -4 13 -3 15 -144 15 -1189 l0 -1184 23 -23 c22 -22
23 -23 361 -23 186 0 351 3 367 7 59 15 56 -64 56 1375 l1 1324 -23 24 c-29
31 -78 33 -111 6 l-24 -19 -2 -1244 c-1 -683 -2 -1259 -3 -1278 l0 -35 -240 0
c-205 0 -241 2 -244 15 -2 8 -4 537 -4 1175 1 638 -3 1171 -7 1184 -15 47 -18
48 -862 47 l-793 -1 -22 -23 -23 -23 0 -1182 c0 -650 -3 -1184 -6 -1187 -4 -3
-114 -5 -245 -5 l-238 0 -2 1265 c-1 696 -2 1271 -3 1278 -5 49 -94 70 -131
30z"/>
<path d="M2712 3003 c-7 -3 -19 -18 -27 -33 -12 -24 -15 -89 -15 -370 l0 -342
29 -29 29 -29 2059 -1 c1132 0 2072 -3 2088 -5 203 -32 364 -130 474 -288 42
-60 93 -182 105 -248 12 -67 90 -92 136 -43 20 21 22 31 17 78 -14 118 -111
306 -209 406 -111 113 -282 209 -419 234 -13 3 -35 8 -49 11 -14 4 -41 8 -60
10 -19 3 -936 5 -2037 5 l-2003 1 0 245 c0 226 1 245 18 246 9 0 275 1 590 2
l574 2 19 24 c25 30 24 72 -2 105 l-20 26 -642 -1 c-353 0 -648 -3 -655 -6z"/>
<path d="M4247 2990 c-35 -28 -38 -87 -6 -116 20 -18 57 -19 1285 -20 695 -1
1302 -5 1350 -9 421 -33 779 -239 996 -575 86 -134 168 -334 193 -475 2 -16 7
-41 10 -55 24 -119 24 -366 0 -490 -51 -263 -129 -438 -281 -630 -59 -76 -117
-130 -205 -195 -181 -133 -364 -206 -613 -244 -110 -17 -212 -18 -1411 -19
-925 0 -1299 -4 -1314 -11 -11 -6 -25 -26 -29 -44 -12 -40 12 -88 48 -97 34
-8 2613 -5 2668 3 23 4 61 9 85 13 214 28 482 135 654 264 298 222 513 589
558 955 4 28 8 61 11 75 6 32 6 307 0 340 -2 14 -7 46 -10 71 -16 113 -35 189
-75 304 -86 240 -215 438 -391 597 -99 90 -137 118 -245 182 -132 77 -334 147
-530 182 -22 4 -643 9 -1381 11 l-1340 4 -27 -21z"/>
<path d="M7486 1408 c-15 -13 -29 -34 -31 -47 -35 -186 -182 -383 -345 -463
-99 -48 -130 -58 -251 -77 -26 -4 -964 -8 -2086 -8 -1577 0 -2044 -3 -2061
-12 -13 -7 -27 -23 -32 -37 -5 -13 -9 -177 -9 -365 l0 -342 27 -26 27 -27 635
2 c349 1 638 2 643 3 4 0 16 10 27 21 28 28 26 81 -4 109 l-24 23 -586 0 -586
0 2 246 3 247 2010 1 c1451 1 2028 4 2075 12 157 28 315 101 436 204 45 39
143 167 174 229 40 79 80 200 80 242 0 70 -74 109 -124 65z"/>
</g>
</svg>
